<svg width="3353" height="1732" viewBox="0 0 3353 1732" fill="none" xmlns="http://www.w3.org/2000/svg">
<g clip-path="url(#clip0)">
<rect width="3353" height="1732" fill="url(#paint0_linear)"/>
<circle cx="291.5" cy="260.5" r="605.5" fill="#F39C12" fill-opacity="0.1"/>
<circle cx="3094.5" cy="1471.5" r="605.5" fill="#E74C3C" fill-opacity="0.2"/>
<circle cx="287" cy="256" r="407" fill="#F39C12"/>
<circle cx="3090" cy="1467" r="407" fill="#E74C3C"/>
<circle cx="110.5" cy="463.5" r="73.5" fill="url(#paint1_linear)" fill-opacity="0.5"/>
<circle cx="2913.5" cy="1674.5" r="73.5" fill="url(#paint2_linear)" fill-opacity="0.5"/>
<circle cx="73.5" cy="38.5" r="73.5" fill="url(#paint3_linear)" fill-opacity="0.5"/>
<circle cx="3074.5" cy="1499.5" r="876.5" fill="#E74C3C" fill-opacity="0.1"/>
<circle cx="2876.5" cy="1249.5" r="73.5" fill="url(#paint4_linear)" fill-opacity="0.5"/>
<circle cx="0.5" cy="288.5" r="73.5" fill="url(#paint5_linear)" fill-opacity="0.5"/>
<circle cx="2803.5" cy="1499.5" r="73.5" fill="url(#paint6_linear)" fill-opacity="0.5"/>
<circle cx="470.5" cy="0.5" r="73.5" fill="url(#paint7_linear)" fill-opacity="0.5"/>
<circle cx="3273.5" cy="1211.5" r="73.5" fill="url(#paint8_linear)" fill-opacity="0.5"/>
<circle cx="259.5" cy="120.5" r="73.5" fill="url(#paint9_linear)" fill-opacity="0.5"/>
<circle cx="3062.5" cy="1331.5" r="73.5" fill="url(#paint10_linear)" fill-opacity="0.5"/>
<circle cx="271.5" cy="330.5" r="73.5" fill="url(#paint11_linear)" fill-opacity="0.5"/>
<circle cx="3074.5" cy="1541.5" r="73.5" fill="url(#paint12_linear)" fill-opacity="0.5"/>
<circle cx="543.5" cy="215.5" r="73.5" fill="url(#paint13_linear)" fill-opacity="0.5"/>
<circle cx="3346.5" cy="1426.5" r="73.5" fill="url(#paint14_linear)" fill-opacity="0.5"/>
<circle cx="491.5" cy="435.5" r="73.5" fill="url(#paint15_linear)" fill-opacity="0.5"/>
<circle cx="3294.5" cy="1646.5" r="73.5" fill="url(#paint16_linear)" fill-opacity="0.5"/>
<circle cx="323.5" cy="540.5" r="73.5" fill="url(#paint17_linear)" fill-opacity="0.5"/>
<circle cx="3126.5" cy="1751.5" r="73.5" fill="url(#paint18_linear)" fill-opacity="0.5"/>
<circle cx="324" cy="256" r="831" fill="#F39C12" fill-opacity="0.1"/>
<circle cx="1211.5" cy="220.5" r="35.5" fill="#C4C4C4" fill-opacity="0.2"/>
<circle cx="1211.5" cy="220.5" r="20.5" fill="#C4C4C4"/>
<circle cx="3185.5" cy="106.5" r="35.5" fill="#C4C4C4" fill-opacity="0.2"/>
<circle cx="3185.5" cy="106.5" r="20.5" fill="#C4C4C4"/>
<circle cx="1993.5" cy="1252.5" r="35.5" fill="#C4C4C4" fill-opacity="0.2"/>
<circle cx="1993.5" cy="1252.5" r="20.5" fill="#C4C4C4"/>
<circle cx="79.5" cy="800.5" r="35.5" fill="#C4C4C4" fill-opacity="0.2"/>
<circle cx="79.5" cy="800.5" r="20.5" fill="#C4C4C4"/>
<circle cx="236.5" cy="1642.5" r="35.5" fill="#C4C4C4" fill-opacity="0.2"/>
<circle cx="236.5" cy="1642.5" r="20.5" fill="#C4C4C4"/>
<circle cx="643.5" cy="871.5" r="35.5" fill="#C4C4C4" fill-opacity="0.2"/>
<circle cx="643.5" cy="871.5" r="20.5" fill="#C4C4C4"/>
<circle cx="1364.5" cy="1365.5" r="35.5" fill="#C4C4C4" fill-opacity="0.2"/>
<circle cx="1364.5" cy="1365.5" r="20.5" fill="#C4C4C4"/>
<circle cx="2394.5" cy="1507.5" r="35.5" fill="#C4C4C4" fill-opacity="0.2"/>
<circle cx="2394.5" cy="1507.5" r="20.5" fill="#C4C4C4"/>
<circle cx="969.5" cy="1487.5" r="35.5" fill="#C4C4C4" fill-opacity="0.2"/>
<circle cx="969.5" cy="1487.5" r="20.5" fill="#C4C4C4"/>
<circle cx="2453.5" cy="141.5" r="35.5" fill="#C4C4C4" fill-opacity="0.2"/>
<circle cx="2453.5" cy="141.5" r="20.5" fill="#C4C4C4"/>
<path d="M1951.54 -169.819C1967.72 -158.75 1777.93 181.389 1766.86 197.571C1755.79 213.753 1733.7 217.898 1717.52 206.828C1701.33 195.759 1697.19 173.667 1708.26 157.485C1719.33 141.302 1935.35 -180.889 1951.54 -169.819Z" fill="#C4C4C4" fill-opacity="0.2"/>
<circle cx="1737.56" cy="177.528" r="20.5" transform="rotate(-55.6258 1737.56 177.528)" fill="#C4C4C4"/>
<path d="M1731.54 1297.18C1747.72 1308.25 1557.93 1648.39 1546.86 1664.57C1535.79 1680.75 1513.7 1684.9 1497.52 1673.83C1481.33 1662.76 1477.19 1640.67 1488.26 1624.48C1499.33 1608.3 1715.35 1286.11 1731.54 1297.18Z" fill="#C4C4C4" fill-opacity="0.2"/>
<circle cx="1517.56" cy="1644.53" r="20.5" transform="rotate(-55.6258 1517.56 1644.53)" fill="#C4C4C4"/>
<path d="M3413.54 144.181C3429.72 155.25 3239.93 495.389 3228.86 511.571C3217.79 527.753 3195.7 531.898 3179.52 520.828C3163.33 509.759 3159.19 487.667 3170.26 471.485C3181.33 455.302 3397.35 133.111 3413.54 144.181Z" fill="#C4C4C4" fill-opacity="0.2"/>
<circle cx="3199.56" cy="491.528" r="20.5" transform="rotate(-55.6258 3199.56 491.528)" fill="#C4C4C4"/>
<path d="M307.537 982.181C323.719 993.25 133.929 1333.39 122.86 1349.57C111.79 1365.75 89.698 1369.9 73.5158 1358.83C57.3336 1347.76 53.1889 1325.67 64.2584 1309.48C75.3279 1293.3 291.355 971.111 307.537 982.181Z" fill="#C4C4C4" fill-opacity="0.2"/>
<circle cx="93.5589" cy="1329.53" r="20.5" transform="rotate(-55.6258 93.5589 1329.53)" fill="#C4C4C4"/>
<circle cx="1488.5" cy="531.5" r="35.5" fill="#C4C4C4" fill-opacity="0.2"/>
<circle cx="1488.5" cy="531.5" r="20.5" fill="#C4C4C4"/>
<circle cx="2049.5" cy="361.5" r="35.5" fill="#C4C4C4" fill-opacity="0.2"/>
<circle cx="2049.5" cy="361.5" r="20.5" fill="#C4C4C4"/>
<circle cx="2597.5" cy="830.5" r="35.5" fill="#C4C4C4" fill-opacity="0.2"/>
<circle cx="2597.5" cy="830.5" r="20.5" fill="#C4C4C4"/>
<path d="M798.836 956.615L815.284 955.679C815.284 955.679 829.577 954.493 837.006 958.761C843.494 962.488 849.626 973.177 849.626 973.177L860.651 988.111L868.445 1009.38C868.445 1009.38 828.88 1027.62 807.395 1016.88C784.401 1005.38 777.343 958.308 777.343 958.308L798.836 956.615Z" fill="#FDB797"/>
<path d="M798.836 956.615L815.284 955.679C815.284 955.679 829.577 954.493 837.006 958.761C843.494 962.488 849.626 973.177 849.626 973.177L860.651 988.111L868.445 1009.38C868.445 1009.38 828.88 1027.62 807.395 1016.88C784.401 1005.38 777.343 958.308 777.343 958.308L798.836 956.615Z" fill="black" fill-opacity="0.05"/>
<path d="M722.89 939.215C752.685 941.458 797.546 955.958 797.546 955.958C797.546 955.958 798.823 969.434 803.46 976.274C807.843 982.74 812.092 985.229 819.011 988.856C826.331 992.693 831.124 994.802 839.387 994.579C848.241 994.34 860.692 986.801 860.692 986.801C860.692 986.801 894.5 1018.08 919.983 1032.32C965.151 1057.55 999.49 1082.14 1048.35 1065.11C1100.02 1047.11 1128.78 950.366 1128.78 950.366L1158.89 965.71C1158.89 965.71 1134.32 1078.15 1079.01 1113.34C1013.19 1155.23 879.491 1103.19 879.491 1103.19L839.553 1167.03L759.676 1294.7L596.949 1211.79L660.712 1075.9L691.801 1007.56C691.801 1007.56 604.98 1010.02 563.505 1041.02C533.16 1063.69 480.416 1157.07 480.416 1157.07L451.139 1136.16C451.139 1136.16 500.332 1033.46 530.381 1002.84C585.838 946.329 643.934 933.273 722.89 939.215Z" fill="#E74C3C"/>
<path d="M315.84 1318.11C357.785 1207.96 598.016 1211 598.016 1211L760.214 1293.64C760.214 1293.64 838.241 1474.57 829 1594.88C821.536 1692.06 750.828 1831.9 750.828 1831.9L707.704 1818.58C707.704 1818.58 760.442 1664.63 746.748 1565.62C733.184 1467.54 642.16 1334.64 642.16 1334.64L628.423 1327.65C628.423 1327.65 450.095 1288.31 407.241 1364.69C368.659 1433.45 460.393 1559.47 460.393 1559.47L414.695 1570.79C414.695 1570.79 278.133 1417.14 315.84 1318.11Z" fill="#4D4D4D"/>
<path d="M461.19 1559.21L415.223 1571.06L400.498 1589.51C385.381 1601.33 351.137 1629.18 335.098 1646.03C319.059 1662.88 331.444 1673.23 339.642 1676.3L483.189 1595.71L461.19 1559.21Z" fill="#757575"/>
<path d="M1139.6 887.334C1134.43 897.478 1129.92 927.215 1128.32 940.816L1128.77 951.692L1156.77 965.959C1158.63 965.797 1163.57 964.632 1168.47 961.275C1173.38 957.917 1181.57 946.877 1185.06 941.777L1203.05 913.008C1206.8 908.263 1215.95 897.353 1222.57 891.675C1230.84 884.578 1226.09 882.155 1224.5 881.348C1222.92 880.54 1200.49 901.055 1198.62 902.101C1197.13 902.939 1197.48 900.855 1197.84 899.709C1205.78 890.222 1222.05 869.449 1223.59 862.247C1225.13 855.046 1219.65 856.914 1216.72 858.748C1209.76 867.181 1194.72 885.206 1190.23 889.839C1185.74 894.472 1184.48 890.679 1184.41 888.204C1190.6 876.052 1203.84 850.589 1207.27 845.947C1211.55 840.146 1209.71 838.54 1207.87 836.935C1206.39 835.651 1203.52 838.494 1202.27 840.075C1194.94 851.865 1179.61 876.711 1177.03 881.783C1174.45 886.855 1170.46 885.093 1168.8 883.577C1172.13 875.293 1179.44 857.192 1182.04 851.06C1185.28 843.394 1183.16 842.317 1180.26 840.173C1177.94 838.459 1175.21 842.257 1174.13 844.37L1147.2 898.529L1149.97 882.639C1151.08 876.283 1147.65 875.019 1145.79 875.182L1139.6 887.334Z" fill="#FDB797"/>
<path d="M418.59 1172.82L451.749 1136.47L480.239 1156.31L480.926 1170.64C481.095 1171.61 481.398 1178.33 481.253 1197.42C481.072 1221.29 469.977 1215.64 468.92 1215.1C467.864 1214.56 467.944 1203.95 467.476 1195.73C467.198 1190.85 463.818 1188.54 457.966 1190.88C454.441 1192.29 448.814 1208.85 441.835 1219.93C434.856 1231.02 432.564 1218.54 432.853 1215.36C433.142 1212.18 444.23 1183.88 441.807 1188.64L437.5 1197.09C430.548 1204.64 415.624 1221.22 411.549 1227.13C406.454 1234.51 402.766 1231.3 401.46 1228.64C400.606 1226.9 411.276 1209.29 419.694 1196.01C418.002 1197.58 412.258 1203.53 403.166 1213.54C393.464 1224.22 385.062 1222.95 389.09 1216.35L416.935 1181.29C410.249 1188.75 397.933 1204.22 394.453 1208.43C391.057 1212.55 379.31 1212.03 384.943 1203.59C389.45 1196.83 409.252 1180.26 418.59 1172.82Z" fill="#FDB797"/>
<path d="M847.656 927.54C882.379 945.231 923.785 933.554 940.139 901.457C956.493 869.36 941.601 828.998 906.878 811.306C872.155 793.614 830.749 805.292 814.395 837.389C798.041 869.486 812.933 909.848 847.656 927.54Z" fill="#333333"/>
<path d="M925.253 910.952C890.315 955.777 881.01 990.498 831.722 965.385C782.433 940.272 802.428 914.428 815.738 859.442C840.844 810.167 855.654 796.565 904.943 821.679C954.231 846.792 950.359 861.677 925.253 910.952Z" fill="#FDB797"/>
<path d="M887.132 923.076C861.488 919.268 849.028 912.916 830.072 894.003C830.072 894.003 817.151 919.363 846.36 934.245C874.219 948.44 887.132 923.076 887.132 923.076Z" fill="white"/>
<path d="M829.279 821.688C829.279 821.688 819.063 835.409 837.277 834.49C855.491 833.571 902.381 861.843 911.892 881.235C921.402 900.626 931.21 893.987 934.948 892.982C938.685 891.977 928.058 837.947 912.484 826.228C870.493 794.646 829.279 821.688 829.279 821.688Z" fill="#333333"/>
<path d="M856.863 798.983C863.108 796.485 866.015 788.705 872.708 787.532C881.673 785.997 889.334 797.318 898.494 796.811C903.505 796.53 907.193 792.801 911.67 790.802C920.587 786.903 933.032 791.423 937.569 800.295C938.335 802.104 939.211 803.875 940.191 805.599C944.107 811.489 952.313 812.547 959.291 814.221C963.737 815.288 968.071 816.84 972.204 818.846C974.198 819.673 975.955 820.985 977.29 822.644C979.363 825.594 978.631 829.49 976.991 832.453C975.351 835.416 972.896 837.928 971.5 841.027C971.248 841.454 971.093 841.932 971.046 842.43C970.999 842.929 971.059 843.437 971.224 843.926C971.633 844.583 972.161 845.171 972.781 845.66C975.025 847.864 975.51 851.163 975.333 854.124C975.041 858.357 973.694 862.399 971.402 865.917C969.11 869.435 965.939 872.329 962.151 874.361C960.614 875.024 959.185 875.876 957.896 876.896C956.77 878.117 955.833 879.49 955.112 880.977C952.182 885.984 946.97 890.348 940.791 889.925C932.828 889.389 927.432 881.767 922.489 875.51C911.253 861.344 895.937 850.573 880.465 840.7C873.577 836.186 866.444 832.045 859.103 828.296C853.613 825.571 845.123 823.971 840.966 819.272C837.655 815.523 838.089 811.137 840.409 807.326C844.378 800.895 850.481 801.544 856.863 798.983Z" fill="#333333"/>
<path d="M2595.02 608.512L2604.59 595.102C2604.59 595.102 2612.62 583.216 2620.6 580.097C2627.56 577.373 2639.74 579.286 2639.74 579.286L2658.29 580.043L2679.75 587.289C2679.75 587.289 2669.19 629.554 2647.36 639.578C2624 650.305 2582.88 626.329 2582.88 626.329L2595.02 608.512Z" fill="#FDB797"/>
<path d="M2592.79 606.721L2602.36 593.311C2602.36 593.311 2610.39 581.425 2618.37 578.306C2625.33 575.582 2637.51 577.495 2637.51 577.495L2656.06 578.252L2677.52 585.498C2677.52 585.498 2666.96 627.763 2645.13 637.787C2621.77 648.514 2580.65 624.538 2580.65 624.538L2592.79 606.721Z" fill="black" fill-opacity="0.05"/>
<path d="M2569.65 622.047L2600.2 602.348C2600.2 602.348 2621.91 609.372 2633.29 603.249C2643.27 597.887 2650.3 579.769 2650.3 579.769C2650.3 579.769 2673.39 574.471 2686.7 567.587C2725.3 547.636 2726.01 512.314 2752.47 477.855C2781 440.709 2827.79 384.525 2827.79 384.525L2841.35 396.866C2841.35 396.866 2805.04 454.178 2783.16 492.815C2757.84 537.514 2722.1 610.854 2722.1 610.854C2722.1 610.854 2727.72 644.924 2732.06 666.615C2740.81 710.367 2759.09 777.625 2759.09 777.625L2639.86 798.924C2639.86 798.924 2626.81 742.59 2606.33 712.927C2594.51 695.815 2570.52 673.519 2570.52 673.519C2570.52 673.519 2491.93 663.627 2443.53 649.265C2400.55 636.512 2336.8 607.007 2336.8 607.007L2341.4 586.122C2341.4 586.122 2411.38 601.595 2456.72 608.674C2500.6 615.525 2569.65 622.047 2569.65 622.047Z" fill="#F39C12"/>
<path d="M2492.97 896.335C2523.08 867.723 2539.91 851.109 2574.21 827.688C2587.04 818.926 2593.52 812.4 2607.91 806.526C2619.79 801.674 2639.79 798.558 2639.79 798.558L2759.02 777.258C2759.02 777.258 2784.24 767.982 2801.02 764.454C2818.86 760.704 2829.25 760.851 2847.4 759.197C2898.54 754.536 2978.84 755.4 2978.84 755.4L3102.54 776.078L3106.67 799.189C3106.67 799.189 3023.48 793.111 2970.84 799.606C2921.36 805.71 2846.69 829.357 2846.69 829.357L2742.87 847.904L2705.82 854.524C2705.82 854.524 2594.12 889.673 2532.83 930.855C2467.93 974.464 2390.24 1071.41 2390.24 1071.41L2363.34 1050.1C2363.34 1050.1 2436.04 950.437 2492.97 896.335Z" fill="#4C4C4C"/>
<path d="M2363.93 1106.39L2390.17 1071.04L2363.58 1049.3C2349.66 1050.52 2318.24 1051.49 2303.86 1045.58C2289.48 1039.67 2288.38 1049.35 2289.63 1054.94L2363.93 1106.39Z" fill="#757575"/>
<path d="M3149.15 748.822L3102.3 776.877L3106.3 799.255L3115.38 805.582C3120.25 803.197 3135.76 796.338 3158.8 787.983C3187.59 777.538 3191.67 764.318 3181.68 748.689C3173.7 736.185 3156.67 743.568 3149.15 748.822Z" fill="#757575"/>
<path d="M2305.94 572.014L2341.46 586.489L2337.1 606.574C2337.83 606.443 2338.11 606.697 2333.33 608.763C2328.55 610.828 2315.61 609.153 2309.73 608.057L2290.29 600.931C2286.4 598.975 2275.93 594.714 2265.08 593.321C2251.52 591.579 2249.2 587.073 2252.8 586.05C2255.68 585.233 2270.27 586.337 2277.2 586.992C2272.46 585.188 2261.67 581.438 2256.42 580.862C2249.85 580.142 2236.76 576.802 2243.04 573.788C2246.8 571.983 2258.89 574.273 2268.65 576.693C2260.53 574.459 2250.29 571.528 2244.15 569.425C2233.27 565.692 2239.93 564.879 2251.2 564.38C2262.47 563.881 2281.73 576.34 2279.97 572.868C2278.22 569.396 2262.19 566.58 2253.78 559.755C2247.05 554.295 2253.97 554.422 2258.26 555.169L2305.94 572.014Z" fill="#FDB797"/>
<path d="M2314.52 582.465C2308.67 578.464 2295.14 571.113 2287.81 573.716C2280.49 576.319 2293.76 579.65 2299.08 589.262C2301.89 592.777 2309.7 598.858 2318.44 595.07" stroke="#A97F6C"/>
<path d="M2827.85 384.892C2834.22 376.056 2847.68 357.274 2850.52 352.83C2854.07 347.274 2869.39 327.122 2873.47 324.502C2877.54 321.881 2886.94 313.01 2887.76 315.513C2888.59 318.015 2890.08 320.02 2886.4 324.841C2882.72 329.663 2865.24 354.741 2865.2 356.641C2865.16 358.509 2861.91 368.999 2862.85 369.167L2871.99 360.728C2876.72 358.243 2884.68 355.888 2878.67 366.349C2872.67 376.81 2865.49 382.963 2862.65 384.732C2860.52 387.636 2854.82 393.854 2849.05 395.489C2843.29 397.125 2840.54 397.263 2839.88 397.128L2827.85 384.892Z" fill="#FDB797"/>
<path d="M2619.69 586.247C2653.8 571.403 2665.72 523.244 2646.33 478.681C2626.93 434.118 2583.56 410.026 2549.45 424.871C2515.35 439.715 2503.42 487.875 2522.82 532.438C2542.21 577.001 2585.59 601.092 2619.69 586.247Z" fill="#333333"/>
<path d="M2640.82 483.849C2653.88 539.159 2675.13 568.157 2624.68 590.857C2574.23 613.556 2566.61 581.784 2532.07 536.972C2509.38 486.54 2508.05 466.476 2558.5 443.777C2608.94 421.077 2618.12 433.417 2640.82 483.849Z" fill="#FDB797"/>
<path d="M2629.13 537.536C2614.89 543.128 2592.45 554.023 2580.61 564.489C2580.61 564.489 2596.92 574.781 2612.85 565.84C2628.05 557.312 2629.13 537.536 2629.13 537.536Z" fill="white"/>
<path d="M2602.95 543.361C2602.95 543.361 2578.94 573.183 2541.06 549.405C2541.06 549.405 2548.02 562.869 2557.37 573.697C2568.46 586.542 2574.42 594.928 2587.57 597.783C2600.73 600.639 2623.32 596.088 2633.17 588.621C2644.33 582.643 2653.09 574.65 2655.94 559.666C2658.78 544.683 2651.82 519.795 2646.59 502.926C2643.08 509.648 2615.56 554.684 2602.95 543.361ZM2612.18 564.944C2606.43 567.448 2586.83 568.401 2585.22 564.682C2583.6 560.963 2599.98 553.861 2605.69 551.373C2611.41 548.885 2626.63 537.5 2628.26 541.246C2629.9 544.992 2617.95 562.435 2612.18 564.944Z" fill="#333333"/>
<path d="M2524.99 489.884C2529.84 490.469 2534.68 490.008 2539.24 488.53C2558.47 483.356 2575.89 473.099 2589.91 458.684C2596.07 465.185 2605.2 467.514 2613.54 466.873C2621.88 466.232 2629.66 463.007 2637.32 459.752C2639.09 459.224 2640.63 458.131 2641.75 456.616C2644.05 452.639 2639.94 447.703 2636.25 444.608L2617.98 429.484C2612.58 425.016 2607.05 420.471 2600.66 418.084C2592.65 415.103 2584.06 415.82 2575.97 417.417C2556.88 421.232 2539.16 429.726 2524.18 442.24C2508.22 455.683 2492.59 484.237 2524.99 489.884Z" fill="#333333"/>
</g>
<defs>
<linearGradient id="paint0_linear" x1="-908.104" y1="866" x2="4261.1" y2="866" gradientUnits="userSpaceOnUse">
<stop stop-color="#1B1730"/>
<stop offset="1" stop-color="#093341"/>
</linearGradient>
<linearGradient id="paint1_linear" x1="76" y1="390" x2="184" y2="537" gradientUnits="userSpaceOnUse">
<stop stop-color="#BE7B10"/>
<stop offset="1" stop-color="#BE7B10" stop-opacity="0"/>
</linearGradient>
<linearGradient id="paint2_linear" x1="2879" y1="1601" x2="2987" y2="1748" gradientUnits="userSpaceOnUse">
<stop stop-color="#E74C3C"/>
<stop offset="1" stop-color="#AE0D0D" stop-opacity="0"/>
</linearGradient>
<linearGradient id="paint3_linear" x1="39" y1="-35" x2="147" y2="112" gradientUnits="userSpaceOnUse">
<stop stop-color="#BE7B10"/>
<stop offset="1" stop-color="#BE7B10" stop-opacity="0"/>
</linearGradient>
<linearGradient id="paint4_linear" x1="2842" y1="1176" x2="2950" y2="1323" gradientUnits="userSpaceOnUse">
<stop stop-color="#E74C3C"/>
<stop offset="1" stop-color="#AE0D0D" stop-opacity="0"/>
</linearGradient>
<linearGradient id="paint5_linear" x1="-34" y1="215" x2="74" y2="362" gradientUnits="userSpaceOnUse">
<stop stop-color="#BE7B10"/>
<stop offset="1" stop-color="#BE7B10" stop-opacity="0"/>
</linearGradient>
<linearGradient id="paint6_linear" x1="2769" y1="1426" x2="2877" y2="1573" gradientUnits="userSpaceOnUse">
<stop stop-color="#E74C3C"/>
<stop offset="1" stop-color="#AE0D0D" stop-opacity="0"/>
</linearGradient>
<linearGradient id="paint7_linear" x1="436" y1="-73" x2="544" y2="74" gradientUnits="userSpaceOnUse">
<stop stop-color="#BE7B10"/>
<stop offset="1" stop-color="#BE7B10" stop-opacity="0"/>
</linearGradient>
<linearGradient id="paint8_linear" x1="3239" y1="1138" x2="3347" y2="1285" gradientUnits="userSpaceOnUse">
<stop stop-color="#E74C3C"/>
<stop offset="1" stop-color="#AE0D0D" stop-opacity="0"/>
</linearGradient>
<linearGradient id="paint9_linear" x1="225" y1="47" x2="333" y2="194" gradientUnits="userSpaceOnUse">
<stop stop-color="#BE7B10"/>
<stop offset="1" stop-color="#BE7B10" stop-opacity="0"/>
</linearGradient>
<linearGradient id="paint10_linear" x1="3028" y1="1258" x2="3136" y2="1405" gradientUnits="userSpaceOnUse">
<stop stop-color="#E74C3C"/>
<stop offset="1" stop-color="#AE0D0D" stop-opacity="0"/>
</linearGradient>
<linearGradient id="paint11_linear" x1="237" y1="257" x2="345" y2="404" gradientUnits="userSpaceOnUse">
<stop stop-color="#BE7B10"/>
<stop offset="1" stop-color="#BE7B10" stop-opacity="0"/>
</linearGradient>
<linearGradient id="paint12_linear" x1="3040" y1="1468" x2="3148" y2="1615" gradientUnits="userSpaceOnUse">
<stop stop-color="#E74C3C"/>
<stop offset="1" stop-color="#AE0D0D" stop-opacity="0"/>
</linearGradient>
<linearGradient id="paint13_linear" x1="509" y1="142" x2="617" y2="289" gradientUnits="userSpaceOnUse">
<stop stop-color="#BE7B10"/>
<stop offset="1" stop-color="#BE7B10" stop-opacity="0"/>
</linearGradient>
<linearGradient id="paint14_linear" x1="3312" y1="1353" x2="3420" y2="1500" gradientUnits="userSpaceOnUse">
<stop stop-color="#E74C3C"/>
<stop offset="1" stop-color="#AE0D0D" stop-opacity="0"/>
</linearGradient>
<linearGradient id="paint15_linear" x1="457" y1="362" x2="565" y2="509" gradientUnits="userSpaceOnUse">
<stop stop-color="#BE7B10"/>
<stop offset="1" stop-color="#BE7B10" stop-opacity="0"/>
</linearGradient>
<linearGradient id="paint16_linear" x1="3260" y1="1573" x2="3368" y2="1720" gradientUnits="userSpaceOnUse">
<stop stop-color="#E74C3C"/>
<stop offset="1" stop-color="#AE0D0D" stop-opacity="0"/>
</linearGradient>
<linearGradient id="paint17_linear" x1="289" y1="467" x2="397" y2="614" gradientUnits="userSpaceOnUse">
<stop stop-color="#BE7B10"/>
<stop offset="1" stop-color="#BE7B10" stop-opacity="0"/>
</linearGradient>
<linearGradient id="paint18_linear" x1="3092" y1="1678" x2="3200" y2="1825" gradientUnits="userSpaceOnUse">
<stop stop-color="#E74C3C"/>
<stop offset="1" stop-color="#AE0D0D" stop-opacity="0"/>
</linearGradient>
<clipPath id="clip0">
<rect width="3353" height="1732" fill="white"/>
</clipPath>
</defs>
</svg>
